<?xml version="1.0" standalone="no"?>
<!DOCTYPE svg PUBLIC "-//W3C//DTD SVG 20010904//EN"
 "http://www.w3.org/TR/2001/REC-SVG-20010904/DTD/svg10.dtd">
<svg version="1.0" xmlns="http://www.w3.org/2000/svg"
 width="2105.000000pt" height="2007.000000pt" viewBox="0 0 2105.000000 2007.000000"
 preserveAspectRatio="xMidYMid meet">

<g transform="translate(0.000000,2007.000000) scale(0.100000,-0.100000)"
fill="#000000" stroke="none">
<path d="M10111 20044 c2 -5 28 -58 57 -116 291 -592 225 -1313 -197 -2157
-415 -827 -1021 -1528 -2280 -2636 -859 -756 -1181 -1055 -1747 -1620 -526
-525 -743 -757 -1127 -1205 -1289 -1501 -2081 -3052 -2361 -4625 -289 -1627
24 -3225 878 -4485 717 -1056 1780 -1878 3113 -2405 276 -110 773 -269 998
-320 39 -9 79 -18 90 -21 11 -3 -43 28 -120 68 -381 200 -673 410 -974 703
-473 460 -815 994 -991 1550 -255 805 -118 1744 383 2615 292 508 737 1015
1252 1426 105 84 280 214 287 214 3 0 -8 -53 -23 -117 -95 -394 -108 -657 -45
-904 42 -166 99 -284 207 -429 313 -423 848 -626 1370 -520 517 105 876 436
989 910 101 425 -15 921 -307 1318 -30 40 -108 132 -175 205 -727 793 -1051
1361 -1128 1977 -15 125 -12 386 5 509 67 457 271 908 591 1306 87 108 345
375 362 375 5 0 -2 -36 -14 -81 -116 -400 8 -824 377 -1290 158 -199 463 -488
724 -686 193 -145 702 -473 1310 -843 853 -519 1151 -711 1534 -989 603 -438
1100 -913 1458 -1392 487 -652 762 -1322 833 -2029 15 -146 15 -486 0 -654
-90 -1043 -713 -2008 -1745 -2703 -228 -154 -652 -382 -920 -496 -60 -26 -105
-47 -100 -47 6 0 105 25 220 54 765 198 1478 481 2167 860 527 289 1030 637
1478 1022 267 230 663 640 887 919 657 819 1068 1730 1212 2685 68 456 72 982
11 1485 -77 634 -257 1226 -551 1815 -133 266 -233 437 -404 695 -369 552
-858 1088 -1430 1565 -284 237 -769 580 -1125 795 -177 107 -640 359 -647 352
-2 -3 0 -14 6 -25 18 -34 53 -184 60 -257 l7 -70 16 95 c9 52 16 82 17 65 1
-42 -28 -217 -38 -229 -5 -6 -19 -40 -31 -76 -12 -36 -42 -108 -67 -160 -25
-52 -47 -101 -49 -107 -6 -30 -105 -155 -184 -233 -217 -214 -515 -357 -836
-400 -56 -8 -151 -11 -245 -8 -432 14 -778 188 -1048 528 -214 268 -338 554
-403 930 -20 114 -16 514 6 670 44 317 100 539 326 1300 169 568 230 870 251
1249 35 656 -113 1333 -440 2006 -320 659 -826 1310 -1412 1815 -164 142 -325
270 -318 254z"/>
</g>
</svg>
